<?xml version="1.0" encoding="UTF-8" standalone="no"?>
<!-- Generator: Adobe Illustrator 24.1.3, SVG Export Plug-In . SVG Version: 6.00 Build 0)  -->

<svg
   version="1.1"
   id="Capa_1"
   x="0px"
   y="0px"
   viewBox="0 0 100 80"
   xml:space="preserve"
   width="100"
   height="80"
   xmlns="http://www.w3.org/2000/svg"
   xmlns:svg="http://www.w3.org/2000/svg"><defs
   id="defs8">
	
	
</defs>
<style
   type="text/css"
   id="style1">
	.st0{fill:#A03033;}
</style>
<polygon
   class="st0"
   points="29,19 22.4,15.1 31.9,11.4 31.8,1.9 6.7,12.2 6.6,11.1 17.5,6.6 17.5,1.9 10.2,5.3 10.2,1.9 7.8,3 7.8,6.2 0.6,9.3 0.6,19 25.9,8.1 25.9,9.3 12.7,15.1 19.8,19 "
   id="polygon1"
   transform="matrix(2.6557469,0,0,2.6557469,7.3776885,0.66157877)" /><g
   id="g7"
   transform="matrix(1.0683626,0,0,1.0683626,-36.415553,54.81552)">
		<path
   d="M 37.5,18.1 C 36.7,17.7 36,17.2 35.4,16.5 l 1.9,-2.3 c 0.8,1.1 1.7,1.6 2.8,1.6 1.4,0 2.1,-0.8 2.1,-2.5 V 6.2 h -3 V 3.4 h 6.5 v 9.7 c 0,1.8 -0.5,3.2 -1.4,4.1 -0.9,0.9 -2.3,1.4 -4,1.4 -1,0.1 -2,-0.1 -2.8,-0.5 z"
   id="path1" />
		<path
   d="M 50.8,16.9 C 49.6,15.7 49,14 49,11.8 V 3.4 h 3.5 v 8.3 c 0,2.7 1.1,4 3.3,4 1.1,0 1.9,-0.3 2.5,-1 0.6,-0.7 0.9,-1.7 0.9,-3.1 V 3.4 h 3.4 v 8.4 c 0,2.2 -0.6,3.9 -1.8,5.1 -1.2,1.2 -2.9,1.8 -5,1.8 -2.2,0 -3.9,-0.6 -5,-1.8 z"
   id="path2" />
		<path
   d="m 75.6,18.4 -2.9,-4.2 h -0.2 -3 v 4.2 H 66 v -15 h 6.5 c 1.3,0 2.5,0.2 3.5,0.7 1,0.4 1.7,1.1 2.3,1.9 0.6,0.8 0.8,1.8 0.8,2.9 0,1.1 -0.3,2.1 -0.8,2.9 -0.5,0.8 -1.3,1.4 -2.3,1.9 l 3.4,4.8 z M 74.7,6.9 C 74.2,6.5 73.4,6.2 72.3,6.2 h -2.8 v 5.2 h 2.8 c 1,0 1.8,-0.2 2.4,-0.7 0.6,-0.5 0.8,-1.1 0.8,-1.9 0,-0.8 -0.3,-1.4 -0.8,-1.9 z"
   id="path3" />
		<path
   d="m 83.4,0.9 h 3.5 l -1.7,1.6 h -3.5 z m -1.6,2.5 h 3.5 v 15 h -3.5 z"
   id="path4" />
		<path
   d="m 88.8,3.4 h 6.8 c 1.6,0 3.1,0.3 4.3,0.9 1.2,0.6 2.2,1.5 2.9,2.6 0.7,1.1 1,2.5 1,4 0,1.5 -0.3,2.8 -1,3.9 -0.7,1.1 -1.7,2 -2.9,2.6 -1.2,0.6 -2.7,0.9 -4.3,0.9 h -6.8 z m 6.6,12.2 c 1.5,0 2.7,-0.4 3.6,-1.2 0.9,-0.8 1.3,-2 1.3,-3.4 C 100.3,9.6 99.9,8.4 99,7.6 98.1,6.8 96.9,6.4 95.4,6.4 h -3.2 v 9.3 z"
   id="path5" />
		<path
   d="m 106.5,3.4 h 3.5 v 15 h -3.5 z"
   id="path6" />
		<path
   d="m 116.6,17.7 c -1.2,-0.7 -2.2,-1.6 -2.9,-2.8 -0.7,-1.2 -1.1,-2.5 -1.1,-4 0,-1.5 0.3,-2.8 1.1,-4 0.8,-1.2 1.7,-2.1 2.9,-2.8 1.2,-0.7 2.6,-1 4.2,-1 1.3,0 2.5,0.2 3.5,0.7 1,0.5 1.9,1.1 2.6,2 l -2.2,2.1 c -1,-1.2 -2.3,-1.8 -3.8,-1.8 -0.9,0 -1.8,0.2 -2.5,0.6 -0.7,0.4 -1.3,1 -1.7,1.7 -0.4,0.7 -0.6,1.6 -0.6,2.5 0,0.9 0.2,1.8 0.6,2.5 0.4,0.7 1,1.3 1.7,1.7 0.7,0.4 1.6,0.6 2.5,0.6 1.5,0 2.8,-0.6 3.8,-1.8 l 2.2,2.1 c -0.7,0.9 -1.6,1.5 -2.7,2 -1.1,0.5 -2.2,0.7 -3.5,0.7 -1.5,0 -2.9,-0.3 -4.1,-1 z"
   id="path7" />
	</g>
</svg>
