<?xml version="1.0" encoding="utf-8"?>
<!-- Generator: Adobe Illustrator 24.1.3, SVG Export Plug-In . SVG Version: 6.00 Build 0)  -->
<svg version="1.1" id="Capa_1" xmlns="http://www.w3.org/2000/svg" xmlns:xlink="http://www.w3.org/1999/xlink" x="0px" y="0px"
	 viewBox="0 0 127.6 20" style="enable-background:new 0 0 127.6 20;" xml:space="preserve">
<style type="text/css">
	.st0{fill:#FFFFFF;}
</style>
<g>
	<polygon class="st0" points="13.7,15.1 20.8,19 30,19 23.4,15.1 32.9,11.4 32.8,1.9 7.7,12.2 7.6,11.1 18.4,6.6 18.4,1.8 11.2,5.3 
		11.2,1.9 8.8,3 8.8,6.2 1.6,9.3 1.6,19 26.9,8.1 26.9,9.3 	"/>
	<g>
		<path class="st0" d="M36.4,18.1c-0.8-0.4-1.5-0.9-2.1-1.6l1.9-2.3c0.8,1.1,1.7,1.6,2.8,1.6c1.4,0,2.1-0.8,2.1-2.5V6.2h-3V3.4h6.5
			v9.7c0,1.8-0.5,3.2-1.4,4.1c-0.9,0.9-2.3,1.4-4,1.4C38.2,18.7,37.3,18.5,36.4,18.1z"/>
		<path class="st0" d="M49.7,16.9C48.6,15.7,48,14,48,11.8V3.4h3.5v8.3c0,2.7,1.1,4,3.3,4c1.1,0,1.9-0.3,2.5-1s0.9-1.7,0.9-3.1V3.4
			h3.4v8.4c0,2.2-0.6,3.9-1.8,5.1c-1.2,1.2-2.9,1.8-5,1.8C52.6,18.7,50.9,18.1,49.7,16.9z"/>
		<path class="st0" d="M74.6,18.4l-2.9-4.2h-0.2h-3v4.2H65v-15h6.5c1.3,0,2.5,0.2,3.5,0.7c1,0.4,1.7,1.1,2.3,1.9S78,7.8,78,8.9
			s-0.3,2.1-0.8,2.9c-0.5,0.8-1.3,1.4-2.3,1.9l3.4,4.8L74.6,18.4L74.6,18.4z M73.7,6.9c-0.5-0.4-1.3-0.7-2.4-0.7h-2.8v5.2h2.8
			c1,0,1.8-0.2,2.4-0.7s0.8-1.1,0.8-1.9C74.5,8,74.2,7.4,73.7,6.9z"/>
		<path class="st0" d="M82.3,0.9h3.5l-1.7,1.6h-3.5L82.3,0.9z M80.8,3.4h3.5v15h-3.5V3.4z"/>
		<path class="st0" d="M87.8,3.4h6.8c1.6,0,3.1,0.3,4.3,0.9s2.2,1.5,2.9,2.6c0.7,1.1,1,2.5,1,4s-0.3,2.8-1,3.9s-1.7,2-2.9,2.6
			s-2.7,0.9-4.3,0.9h-6.8V3.4z M94.4,15.6c1.5,0,2.7-0.4,3.6-1.3s1.3-2,1.3-3.4S98.9,8.4,98,7.5s-2.1-1.3-3.6-1.3h-3.2v9.3
			L94.4,15.6L94.4,15.6z"/>
		<path class="st0" d="M105.5,3.4h3.5v15h-3.5V3.4z"/>
		<path class="st0" d="M115.6,17.7c-1.2-0.7-2.2-1.6-2.9-2.8s-1.1-2.5-1.1-4s0.3-2.8,1.1-4s1.7-2.1,2.9-2.8c1.2-0.7,2.6-1,4.2-1
			c1.3,0,2.5,0.2,3.5,0.7s1.9,1.1,2.6,2l-2.2,2.1c-1-1.2-2.3-1.8-3.8-1.8c-0.9,0-1.8,0.2-2.5,0.6s-1.3,1-1.7,1.7s-0.6,1.6-0.6,2.5
			s0.2,1.8,0.6,2.5s1,1.3,1.7,1.7s1.6,0.6,2.5,0.6c1.5,0,2.8-0.6,3.8-1.8l2.2,2.1c-0.7,0.9-1.6,1.5-2.7,2c-1.1,0.5-2.2,0.7-3.5,0.7
			C118.2,18.7,116.8,18.4,115.6,17.7z"/>
	</g>
</g>
</svg>
